<?xml version="1.0" standalone="no"?>
<!DOCTYPE svg PUBLIC "-//W3C//DTD SVG 20010904//EN"
 "http://www.w3.org/TR/2001/REC-SVG-20010904/DTD/svg10.dtd">
<svg version="1.0" xmlns="http://www.w3.org/2000/svg"
 width="1920.000000pt" height="1080.000000pt" viewBox="0 0 1920.000000 1080.000000"
 preserveAspectRatio="xMidYMid meet">

<g transform="translate(0.000000,1080.000000) scale(0.100000,-0.100000)"
fill="#000000" stroke="none">
<path d="M0 8905 l0 -1895 318 -3 317 -2 -317 -3 -318 -2 0 -3500 0 -3500
1456 0 c1087 0 1453 3 1448 12 -4 6 -3 8 4 4 5 -3 12 -3 15 1 2 5 2 2 1 -4 -3
-10 1630 -13 8136 -13 l8140 0 0 4197 c0 3264 -3 4194 -12 4185 -15 -15 -51
-15 -66 0 -28 28 -7 78 33 78 12 0 26 -5 33 -12 9 -9 12 251 12 1170 l0 1183
-457 -4 c-252 -3 -462 -4 -468 -4 -5 0 -3879 2 -8607 4 -7642 3 -8597 1 -8592
-12 5 -13 -10 -15 -101 -15 -91 0 -106 2 -101 15 5 13 -48 15 -434 15 l-440 0
0 -1895z m5340 1700 c-7 -8 -18 -15 -24 -15 -6 0 -3 5 7 11 9 5 18 20 18 32 1
18 2 18 6 4 3 -10 -1 -24 -7 -32z m-5183 29 c-3 -3 -12 -4 -19 -1 -8 3 -5 6 6
6 11 1 17 -2 13 -5z m1181 -71 l-2 -68 -3 63 -4 62 -94 0 -95 0 0 -59 c0 -52
3 -60 20 -64 17 -4 16 -4 -2 -3 -21 1 -23 6 -26 69 l-3 67 106 0 105 0 -2 -67z
m-75 30 c-13 -2 -35 -2 -50 0 -16 2 -5 4 22 4 28 0 40 -2 28 -4z m-1106 -45
c-3 -8 -6 -5 -6 6 -1 11 2 17 5 13 3 -3 4 -12 1 -19z m1120 6 c-3 -3 -12 -4
-19 -1 -8 3 -5 6 6 6 11 1 17 -2 13 -5z m14976 -46 c22 -27 22 -49 -4 -82 -49
-62 -147 -5 -119 69 18 47 87 55 123 13z m-15010 15 c-7 -2 -21 -2 -30 0 -10
3 -4 5 12 5 17 0 24 -2 18 -5z m-1036 -19 c-3 -3 -12 -4 -19 -1 -8 3 -5 6 6 6
11 1 17 -2 13 -5z m1106 -11 c-7 -2 -19 -2 -25 0 -7 3 -2 5 12 5 14 0 19 -2
13 -5z m354 -59 c-3 -3 -12 -4 -19 -1 -8 3 -5 6 6 6 11 1 17 -2 13 -5z m3627
-410 c10 -4 16 -18 16 -35 0 -23 -6 -30 -27 -35 -30 -8 -56 5 -61 30 -7 35 31
56 72 40z m827 -295 c28 -52 -35 -93 -67 -44 -12 18 -11 24 2 43 19 28 50 28
65 1z m-3780 -102 c-10 -28 -53 -34 -71 -10 -12 15 -12 16 0 6 34 -31 78 1 59
42 -10 19 -9 19 5 2 10 -13 12 -26 7 -40z m3409 -342 c19 -22 4 -64 -25 -71
-31 -8 -55 10 -55 40 0 43 53 63 80 31z m2337 -27 c-3 -8 -6 -5 -6 6 -1 11 2
17 5 13 3 -3 4 -12 1 -19z m3393 -148 c0 -5 -2 -10 -4 -10 -3 0 -8 5 -11 10
-3 6 -1 10 4 10 6 0 11 -4 11 -10z m-477 -17 c-5 -12 -2 -15 10 -10 9 3 17 2
17 -3 0 -6 -7 -10 -15 -10 -21 0 -19 -18 3 -23 13 -4 11 -5 -5 -6 -20 -1 -23
4 -23 34 0 19 4 35 10 35 5 0 6 -8 3 -17z m334 -35 c-2 -13 -4 -5 -4 17 -1 22
1 32 4 23 2 -10 2 -28 0 -40z m335 34 c3 -9 1 -26 -3 -37 -6 -15 -8 -11 -8 18
-1 40 4 48 11 19z m32 -12 c-6 -6 -10 -3 -10 10 0 13 4 16 10 10 7 -7 7 -13 0
-20z m120 -2 c8 -5 7 -8 -1 -8 -19 0 -16 -18 5 -23 13 -4 11 -5 -5 -6 -20 -1
-23 4 -22 37 0 20 3 30 6 22 3 -8 11 -18 17 -22z m65 -9 c1 8 3 12 6 9 3 -3 2
-13 -1 -23 -6 -15 -8 -15 -20 6 -7 13 -13 31 -13 39 0 8 6 2 14 -15 7 -16 14
-24 14 -16z m65 9 c8 -5 7 -8 -1 -8 -19 0 -16 -18 5 -23 13 -4 11 -5 -5 -6
-20 -1 -23 4 -22 37 0 20 3 30 6 22 3 -8 11 -18 17 -22z m124 23 c-2 -5 6 -16
17 -25 24 -17 9 -41 -21 -33 -16 4 -15 5 4 6 27 1 28 12 2 29 -12 7 -18 17
-15 22 8 13 16 13 13 1z m161 -8 c0 -11 -3 -13 -6 -5 -9 22 -33 13 -33 -13 0
-25 23 -35 33 -15 3 6 4 5 3 -2 -4 -20 -40 -15 -44 5 -6 28 5 47 28 47 13 0
20 -6 19 -17z m41 1 c0 -8 -4 -12 -10 -9 -5 3 -10 10 -10 16 0 5 5 9 10 9 6 0
10 -7 10 -16z m353 -46 c8 -5 4 -8 -8 -8 -18 0 -20 5 -16 38 5 36 6 36 9 7 2
-16 9 -33 15 -37z m-1465 19 c3 -22 -1 -27 -17 -27 -14 0 -21 6 -20 18 0 10 3
12 6 5 2 -7 9 -13 14 -13 12 0 11 37 -1 43 -6 3 -5 4 2 3 7 -1 14 -15 16 -29z
m45 15 c-10 -10 -20 -17 -22 -16 -6 5 20 34 30 34 5 0 1 -8 -8 -18z m222 -13
c0 -15 -7 -25 -18 -27 -22 -4 -33 24 -17 43 18 21 35 13 35 -16z m130 21 c3
-6 -1 -7 -9 -4 -18 7 -21 14 -7 14 6 0 13 -4 16 -10z m47 -19 c2 -17 1 -28 -4
-25 -8 5 -12 54 -4 54 2 0 6 -13 8 -29z m751 -22 c-6 -6 -7 3 -4 23 4 28 6 29
9 9 2 -13 0 -27 -5 -32z m460 44 c-19 -7 -16 -41 5 -46 16 -4 16 -5 -1 -6 -10
0 -20 6 -23 14 -8 20 2 45 18 44 10 0 10 -2 1 -6z m157 3 c0 -3 -4 -8 -10 -11
-5 -3 -10 -1 -10 4 0 6 5 11 10 11 6 0 10 -2 10 -4z m120 -10 c0 -8 -5 -18
-11 -22 -8 -4 -7 -9 2 -15 11 -7 10 -9 -3 -9 -21 0 -23 11 -6 28 10 10 10 15
-2 22 -13 8 -12 10 3 10 9 0 17 -6 17 -14z m-1805 -6 c-4 -6 -1 -18 7 -27 12
-15 11 -15 -9 -2 -26 16 -29 25 -10 32 18 8 19 8 12 -3z m476 1 c-13 -8 -13
-12 0 -27 12 -15 10 -15 -13 1 -22 17 -24 21 -10 27 25 10 39 9 23 -1z m265
-15 c2 -22 1 -23 -15 -7 -15 14 -15 17 -1 23 8 4 15 7 15 7 0 1 1 -10 1 -23z
m-482 -6 c-19 -7 -19 -7 1 -13 20 -6 20 -6 0 -4 -11 1 -21 10 -23 19 -2 13 2
15 19 11 22 -6 22 -7 3 -13z m943 14 c-3 -3 -12 -4 -19 -1 -8 3 -5 6 6 6 11 1
17 -2 13 -5z m178 -14 c-3 -5 3 -11 12 -14 14 -4 14 -4 -2 -3 -11 1 -21 11
-23 21 -3 11 0 16 7 11 6 -3 9 -10 6 -15z m210 -10 c7 0 16 7 18 15 4 11 4 10
3 -2 -2 -22 -40 -24 -42 -3 0 9 1 10 3 3 3 -7 11 -13 18 -13z m-581 5 c3 -8 1
-15 -4 -15 -6 0 -10 7 -10 15 0 8 2 15 4 15 2 0 6 -7 10 -15z m-809 -13 c-3
-3 -11 0 -18 7 -9 10 -8 11 6 5 10 -3 15 -9 12 -12z m-268 2 c-3 -3 -12 -4
-19 -1 -8 3 -5 6 6 6 11 1 17 -2 13 -5z m936 -1 c-7 -2 -19 -2 -25 0 -7 3 -2
5 12 5 14 0 19 -2 13 -5z m794 1 c-3 -3 -12 -4 -19 -1 -8 3 -5 6 6 6 11 1 17
-2 13 -5z m-194 -21 c-7 -2 -19 -2 -25 0 -7 3 -2 5 12 5 14 0 19 -2 13 -5z
m2090 -70 l-2813 -3 0 -3435 c0 -1889 -3 -3435 -7 -3435 -5 0 -8 1545 -8 3432
l0 3433 -560 5 c-308 3 961 5 2820 5 3059 0 3113 0 568 -2z m-2913 -63 c0 -7
-169 -10 -486 -10 l-487 0 6 -82 c4 -46 7 -130 8 -188 0 -58 3 -99 6 -92 4 9
89 12 379 12 372 0 375 0 364 20 -8 15 -8 20 3 20 7 0 18 -5 24 -11 12 -12 46
-9 47 5 1 4 -14 13 -33 20 -30 10 -34 15 -37 53 -3 34 0 44 15 53 22 11 102
14 84 2 -6 -4 -13 -21 -15 -37 -2 -24 -8 -31 -30 -33 -37 -4 -36 -22 2 -22 46
0 62 -47 20 -63 -8 -3 15 -6 52 -6 61 -1 67 1 71 22 2 12 5 -20 6 -70 l1 -93
-490 0 -490 0 0 248 c0 137 3 252 7 255 11 12 973 8 973 -3z m-10143 -27 c13
-19 12 -24 -6 -42 -26 -26 -33 -26 -62 -2 -21 17 -22 22 -11 45 9 21 18 27 38
24 15 -2 33 -13 41 -25z m12375 -35 c-7 -7 -12 -8 -12 -2 0 14 12 26 19 19 2
-3 -1 -11 -7 -17z m185 -30 c-2 -13 -4 -5 -4 17 -1 22 1 32 4 23 2 -10 2 -28
0 -40z m2383 42 c0 -5 -4 -10 -10 -10 -5 0 -10 5 -10 10 0 6 5 10 10 10 6 0
10 -4 10 -10z m-2230 -10 c0 -5 -4 -10 -10 -10 -5 0 -10 5 -10 10 0 6 5 10 10
10 6 0 10 -4 10 -10z m2820 0 c0 -5 -4 -10 -10 -10 -5 0 -10 5 -10 10 0 6 5
10 10 10 6 0 10 -4 10 -10z m-4991 -13 c8 -11 -2 -24 -45 -61 l-55 -48 -30 28
c-34 33 -24 60 11 29 21 -19 21 -18 63 23 23 23 42 42 43 42 1 0 7 -6 13 -13z
m2054 -29 c-10 -21 -10 -21 -9 9 1 19 5 28 10 23 6 -6 5 -18 -1 -32z m2426 39
c-2 -2 -12 -9 -21 -16 -15 -11 -18 -11 -18 1 0 7 10 14 21 15 12 1 20 1 18 0z
m53 -27 c3 -16 1 -30 -4 -30 -4 0 -8 14 -8 30 0 17 2 30 4 30 2 0 6 -13 8 -30z
m258 20 c0 -5 -2 -10 -4 -10 -3 0 -8 5 -11 10 -3 6 -1 10 4 10 6 0 11 -4 11
-10z m122 -15 c-5 -29 12 -34 27 -7 6 9 11 12 11 6 0 -17 -27 -37 -40 -29 -11
7 -14 38 -3 48 10 11 11 9 5 -18z m-3052 -18 c0 -5 -4 -5 -10 -2 -5 3 -10 14
-10 23 0 15 2 15 10 2 5 -8 10 -19 10 -23z m137 1 c-3 -7 -5 -2 -5 12 0 14 2
19 5 13 2 -7 2 -19 0 -25z m2715 7 c3 -13 1 -22 -3 -19 -9 5 -13 44 -5 44 2 0
6 -11 8 -25z m-9338 -2 c36 -17 66 -63 66 -102 0 -40 -28 -90 -62 -111 -101
-61 -219 28 -187 142 21 78 103 109 183 71z m4746 13 c0 -3 -4 -8 -10 -11 -5
-3 -10 -1 -10 4 0 6 5 11 10 11 6 0 10 -2 10 -4z m212 -53 c-7 -36 -12 -27
-11 20 0 30 3 36 8 23 4 -11 6 -30 3 -43z m268 11 c0 -41 -2 -45 -22 -42 -17
2 -24 11 -26 31 -2 15 1 27 6 27 5 0 7 -11 4 -25 -3 -18 0 -25 12 -25 12 0 16
10 16 40 0 22 2 40 5 40 3 0 5 -21 5 -46z m1225 36 c3 -5 1 -10 -4 -10 -6 0
-11 5 -11 10 0 6 2 10 4 10 3 0 8 -4 11 -10z m348 -10 c3 -11 1 -18 -4 -14 -5
3 -9 12 -9 20 0 20 7 17 13 -6z m757 10 c0 -5 -5 -10 -11 -10 -5 0 -7 5 -4 10
3 6 8 10 11 10 2 0 4 -4 4 -10z m217 -57 c-2 -16 -4 -5 -4 22 0 28 2 40 4 28
2 -13 2 -35 0 -50z m93 28 c0 -22 5 -42 10 -44 6 -3 5 -4 -2 -3 -14 3 -30 86
-16 86 4 0 8 -18 8 -39z m171 -44 c-5 -5 -17 -7 -26 -4 -24 10 -30 37 -10 55
16 16 17 16 7 -4 -6 -11 -7 -26 -2 -33 11 -19 33 -2 27 21 -3 11 -3 27 1 36 5
11 8 4 10 -22 2 -21 -1 -43 -7 -49z m1576 61 c-3 -8 -6 -5 -6 6 -1 11 2 17 5
13 3 -3 4 -12 1 -19z m-2875 -10 c-9 -9 -15 -9 -24 1 -11 10 -10 11 5 6 10 -5
17 -2 17 6 0 7 3 9 7 6 4 -4 1 -13 -5 -19z m2554 2 c8 0 14 -5 14 -10 0 -7 -6
-7 -20 0 -11 6 -20 16 -19 23 0 9 2 9 6 0 2 -7 11 -13 19 -13z m206 -2 c-7 -7
-12 -8 -12 -2 0 14 12 26 19 19 2 -3 -1 -11 -7 -17z m-4354 0 c18 -18 15 -28
-8 -28 -22 0 -27 -16 -7 -23 7 -2 6 -3 -3 -3 -16 1 -25 29 -16 52 7 17 18 18
34 2z m1397 2 c3 -5 -1 -10 -10 -10 -9 0 -13 5 -10 10 3 6 8 10 10 10 2 0 7
-4 10 -10z m1423 -13 c2 -12 -3 -17 -17 -17 -25 0 -28 -17 -3 -24 13 -4 13 -4
-3 -3 -13 1 -21 11 -23 26 -6 38 39 55 46 18z m1452 13 c0 -5 -4 -10 -10 -10
-5 0 -10 5 -10 10 0 6 5 10 10 10 6 0 10 -4 10 -10z m-4660 -15 c0 -2 -7 -5
-15 -9 -9 -3 -15 0 -15 9 0 9 6 12 15 9 8 -4 15 -7 15 -9z m156 -31 c-9 -23
-36 -17 -35 9 1 16 2 18 6 5 7 -28 23 -21 24 10 1 17 3 21 6 9 3 -10 2 -25 -1
-33z m2654 36 c12 -8 11 -10 -7 -10 -13 0 -23 5 -23 10 0 13 11 13 30 0z m170
-11 c0 -5 -4 -9 -10 -9 -5 0 -10 7 -10 16 0 8 5 12 10 9 6 -3 10 -10 10 -16z
m76 -25 c-3 -8 -11 -14 -18 -14 -9 0 -9 3 0 12 7 7 13 21 13 33 1 17 2 18 6 2
3 -10 2 -25 -1 -33z m1424 36 c0 -5 -2 -10 -4 -10 -3 0 -8 5 -11 10 -3 6 -1
10 4 10 6 0 11 -4 11 -10z m-1537 -26 c-5 -13 -1 -15 18 -10 21 6 22 6 6 -5
-21 -12 -44 2 -33 20 11 17 16 13 9 -5z m-4159 -15 c-3 -5 -10 -7 -15 -3 -5 3
-7 10 -3 15 3 5 10 7 15 3 5 -3 7 -10 3 -15z m267 -2 c-13 -13 -26 -3 -16 12
3 6 11 8 17 5 6 -4 6 -10 -1 -17z m1180 0 c-10 -9 -11 -8 -5 6 3 10 9 15 12
12 3 -3 0 -11 -7 -18z m-221 -3 c0 -2 -9 -4 -20 -4 -11 0 -20 4 -20 9 0 5 9 7
20 4 11 -3 20 -7 20 -9z m1988 9 c-71 -2 -185 -2 -255 0 -71 1 -13 3 127 3
140 0 198 -2 128 -3z m817 -3 c19 -8 19 -9 -2 -9 -12 -1 -25 4 -28 9 -7 12 2
12 30 0z m1928 3 c-106 -2 -280 -2 -385 0 -106 1 -20 2 192 2 212 0 298 -1
193 -2z m-6062 -78 c18 -52 22 -75 14 -75 -7 0 -15 9 -18 20 -6 24 -67 29 -67
6 0 -16 -18 -31 -27 -23 -9 9 48 147 60 147 7 0 24 -34 38 -75z m113 -1 c3
-27 14 -53 24 -60 15 -12 10 -13 -36 -14 -33 0 -51 4 -47 10 3 6 13 10 21 10
10 0 14 12 14 40 0 29 -4 40 -15 40 -8 0 -15 5 -15 10 0 6 11 10 24 10 20 0
24 -6 30 -46z m166 26 c15 -23 12 -100 -2 -100 -9 0 -12 15 -9 51 2 40 0 50
-10 47 -9 -3 -15 -23 -17 -51 -4 -63 -22 -60 -22 4 0 66 -24 62 -28 -4 -2 -26
-7 -47 -13 -47 -9 0 -13 102 -4 112 12 12 96 2 105 -12z m98 -31 c2 -38 7 -48
25 -54 21 -7 21 -8 -5 -12 -16 -2 -40 -2 -55 0 -27 4 -27 4 -5 12 18 6 22 15
22 46 0 33 -3 39 -21 39 -12 0 -17 4 -14 11 4 5 17 9 28 7 18 -2 22 -11 25
-49z m149 39 c6 -7 13 -34 16 -60 5 -39 4 -48 -8 -48 -11 0 -15 13 -15 51 0
47 -2 50 -22 47 -20 -3 -23 -10 -26 -50 -4 -66 -22 -60 -22 6 0 49 2 55 23 59
40 8 44 7 54 -5z m3333 -158 c0 -22 -2 -40 -4 -40 -2 0 -6 18 -8 40 -2 22 0
40 4 40 5 0 8 -18 8 -40z m607 0 c10 0 14 6 10 20 -3 11 -1 20 4 20 18 0 9
-42 -10 -47 -11 -3 -22 -12 -24 -22 -3 -9 -5 4 -4 29 0 25 2 35 4 23 2 -13 11
-23 20 -23z m236 -33 c8 -6 7 -7 -3 -4 -10 2 -15 17 -16 43 -1 37 -1 38 3 4 3
-19 10 -39 16 -43z m-3509 55 c3 -5 -19 -33 -50 -63 l-54 -53 -32 32 c-25 24
-30 34 -20 44 9 9 16 7 32 -7 21 -19 21 -18 58 18 36 36 56 45 66 29z m2766
-2 c0 -5 -7 -10 -16 -10 -12 0 -15 -7 -12 -25 3 -15 1 -25 -6 -25 -17 0 -14
54 4 62 22 10 30 9 30 -2z m146 -6 c-1 -9 -10 -22 -20 -29 -15 -12 -15 -13 4
-18 21 -5 28 -27 9 -27 -5 0 -7 5 -4 10 3 6 -1 10 -9 10 -23 0 -41 39 -25 54
9 8 10 8 5 -1 -8 -14 10 -27 24 -18 8 5 7 11 -1 21 -9 11 -8 14 4 14 8 0 14
-7 13 -16z m77 -1 c-3 -10 -13 -24 -21 -30 -14 -12 -14 -13 0 -13 22 0 32 -16
17 -26 -8 -4 -9 -3 -5 4 5 8 0 12 -12 12 -23 0 -36 38 -20 57 16 20 49 17 41
-4z m157 7 c0 -5 -7 -10 -15 -10 -8 0 -15 -6 -15 -12 0 -9 -3 -8 -10 2 -7 11
-5 17 8 22 25 10 32 9 32 -2z m220 -32 c0 -24 -4 -29 -22 -26 -12 2 -23 9 -24
16 -1 7 0 8 3 2 6 -13 33 -13 33 0 0 6 -6 10 -12 11 -10 0 -10 2 0 6 10 4 10
8 1 19 -10 12 -9 13 5 8 10 -4 16 -18 16 -36z m80 24 c-8 -3 -21 -9 -27 -15
-9 -7 -13 -5 -13 6 0 9 8 17 18 20 21 4 41 -5 22 -11z m-616 -44 c7 -5 3 -8
-10 -8 -18 0 -20 5 -15 33 5 29 6 30 9 7 2 -14 9 -28 16 -32z m201 42 c-3 -5
1 -10 10 -10 10 0 13 5 9 12 -4 7 -3 8 4 4 19 -11 14 -26 -8 -26 -23 0 -27
-16 -5 -23 11 -4 10 -4 -2 -3 -20 1 -32 56 -13 56 6 0 8 -4 5 -10z m-2927 -9
c-2 -5 6 -17 17 -25 19 -16 19 -16 -7 -5 -28 12 -33 20 -21 32 9 10 13 9 11
-2z m400 -22 c16 -1 16 -2 0 -6 -9 -2 -19 -14 -21 -26 -2 -12 -4 -2 -4 23 -1
25 1 37 4 28 2 -10 12 -19 21 -19z m54 -4 c-3 -27 -1 -35 12 -35 22 0 32 28
17 51 -6 11 -7 19 -2 19 14 0 23 -37 16 -61 -9 -28 -49 -22 -53 9 -3 22 3 52
11 52 1 0 1 -16 -1 -35z m78 0 c0 -5 -5 -3 -10 5 -5 8 -10 20 -10 25 0 6 5 3
10 -5 5 -8 10 -19 10 -25z m-450 11 c0 -3 -4 -8 -10 -11 -5 -3 -10 -1 -10 4 0
6 5 11 10 11 6 0 10 -2 10 -4z m72 -21 c-3 -19 0 -25 13 -25 13 0 16 6 12 26
-3 16 -1 22 5 16 16 -16 4 -47 -20 -50 -19 -3 -22 1 -22 27 0 17 4 31 9 31 4
0 6 -11 3 -25z m102 -1 c11 -28 6 -39 -9 -20 -8 11 -15 23 -15 28 0 14 18 9
24 -8z m-24 -20 c0 -8 -4 -14 -10 -14 -5 0 -10 9 -10 21 0 11 5 17 10 14 6 -3
10 -13 10 -21z m2787 20 c-3 -3 -12 -4 -19 -1 -8 3 -5 6 6 6 11 1 17 -2 13 -5z
m300 0 c-3 -3 -12 -4 -19 -1 -8 3 -5 6 6 6 11 1 17 -2 13 -5z m-2767 -20 c0
-8 -5 -12 -10 -9 -6 4 -8 11 -5 16 9 14 15 11 15 -7z m-515 -4 c-3 -5 -18 -9
-33 -9 l-27 1 30 8 c17 4 31 8 33 9 2 0 0 -3 -3 -9z m2740 0 c3 -6 -1 -7 -9
-4 -18 7 -21 14 -7 14 6 0 13 -4 16 -10z m-6381 -52 c20 -29 20 -62 0 -78 -19
-16 -71 -17 -86 -2 -15 15 -14 67 2 86 19 24 66 20 84 -6z m7746 -68 c0 -6
-12 -29 -26 -51 l-26 -41 -24 38 c-34 57 -32 64 26 64 28 0 50 -5 50 -10z
m-1563 -72 c-2 -13 -4 -3 -4 22 0 25 2 35 4 23 2 -13 2 -33 0 -45z m42 20 c-1
-35 -2 -38 -8 -18 -7 23 -4 60 5 60 2 0 4 -19 3 -42z m231 2 c0 -22 -3 -40 -7
-40 -5 0 -7 15 -6 32 2 47 2 48 8 48 3 0 5 -18 5 -40z m-5178 3 c22 -20 23
-41 1 -65 -20 -22 -51 -23 -75 -1 -22 20 -23 32 -2 61 18 26 50 28 76 5z
m4990 -14 c-4 -26 -6 -29 -14 -15 -6 11 -6 22 2 32 17 19 17 19 12 -17z m32
16 c3 -8 1 -15 -4 -15 -6 0 -10 7 -10 15 0 8 2 15 4 15 2 0 6 -7 10 -15z m76
-21 c0 -13 -4 -24 -8 -24 -5 0 -8 13 -8 29 0 17 3 28 8 25 4 -3 8 -16 8 -30z
m46 1 c0 -18 -3 -32 -8 -29 -13 8 -8 64 6 64 1 0 1 -16 2 -35z m-2857 -15 c4
0 13 6 21 13 12 10 12 9 1 -5 -11 -15 -11 -21 0 -35 13 -17 12 -17 -4 -4 -16
13 -20 13 -28 0 -6 -9 -8 1 -7 31 0 25 3 35 5 23 2 -13 8 -23 12 -23z m148
-22 c-2 -13 -4 -3 -4 22 0 25 2 35 4 23 2 -13 2 -33 0 -45z m-617 42 c0 -7
-168 -10 -485 -10 -317 0 -485 3 -485 10 0 7 168 10 485 10 317 0 485 -3 485
-10z m258 -57 c14 -12 13 -13 -6 -13 -19 0 -22 5 -21 43 2 33 3 36 6 12 2 -16
12 -36 21 -42z m399 45 c-3 -8 -6 -5 -6 6 -1 11 2 17 5 13 3 -3 4 -12 1 -19z
m205 -18 c4 -46 -6 -41 -15 8 -4 17 -3 32 2 32 5 0 11 -18 13 -40z m-547 8 c0
-13 5 -23 10 -23 6 0 10 10 10 22 -1 12 3 19 7 17 4 -3 8 -16 8 -29 0 -23 -24
-40 -41 -29 -10 6 -12 47 -2 57 9 10 9 10 8 -15z m78 1 c-4 -15 0 -27 13 -36
19 -14 19 -15 -1 -11 -21 3 -31 29 -21 54 8 22 15 17 9 -7z m337 -16 c0 -32
-11 -24 -14 11 -2 14 1 23 5 20 5 -3 9 -17 9 -31z m64 23 c-10 -8 -21 -12 -24
-10 -5 6 21 24 34 24 6 0 1 -6 -10 -14z m-1016 -213 c3 -67 5 -73 25 -74 18
-1 18 -2 4 -6 -33 -9 -47 15 -47 82 0 52 -3 64 -17 69 -11 3 -7 4 7 3 24 -2
25 -5 28 -74z m-694 15 c11 -29 22 -56 26 -61 3 -4 14 17 24 48 9 30 22 57 28
61 8 5 9 1 4 -12 -5 -10 -17 -45 -28 -76 -11 -32 -23 -58 -27 -58 -4 0 -18 30
-32 67 -13 37 -25 71 -27 75 -2 4 0 8 5 8 5 0 17 -24 27 -52z m3985 -15 l-2
-48 -6 40 c-7 38 -5 55 5 55 2 0 3 -21 3 -47z m781 1 c0 -41 -2 -45 -22 -42
-17 2 -24 11 -26 31 -2 15 1 27 6 27 5 0 7 -11 4 -25 -3 -19 0 -25 13 -25 11
0 16 7 15 23 -3 32 -1 57 5 57 3 0 5 -21 5 -46z m-4590 -23 c0 -39 4 -51 18
-54 9 -3 -3 -5 -28 -5 -25 0 -37 2 -27 5 13 3 17 15 17 48 0 33 -4 45 -17 48
-11 3 -7 5 10 6 26 1 27 -1 27 -48z m123 42 c-43 -5 -42 -20 2 -39 36 -15 44
-31 23 -52 -14 -14 -64 -16 -72 -3 -3 5 9 8 26 7 23 -1 33 4 36 17 2 9 -2 17
-10 17 -25 0 -52 26 -45 44 4 11 17 15 39 14 l33 -1 -32 -4z m113 -90 c23 -9
43 16 47 60 3 37 4 35 5 -13 l2 -56 -37 1 -38 0 -1 55 c-1 52 -1 53 3 7 3 -30
10 -50 19 -54z m178 75 c3 -13 7 -37 9 -54 3 -31 2 -32 -37 -30 -37 1 -41 4
-41 26 0 20 7 27 33 35 38 11 37 28 -4 36 l-29 7 32 1 c26 1 34 -3 37 -21z
m249 15 c-41 -5 -43 -28 -3 -42 50 -17 36 -61 -20 -61 -10 0 -21 3 -23 8 -3 4
9 7 25 7 44 0 46 23 4 40 -56 24 -48 56 13 53 l36 -1 -32 -4z m1903 -20 c-8
-16 -21 -37 -29 -47 -14 -19 -16 -18 -41 22 -14 23 -26 44 -26 47 0 3 25 5 55
5 l56 0 -15 -27z m1344 17 c0 -5 -6 -9 -12 -7 -8 1 -13 -9 -13 -25 1 -16 -4
-28 -11 -28 -14 0 -6 52 10 62 15 11 26 10 26 -2z m63 -52 c8 -5 4 -8 -8 -8
-18 0 -20 5 -16 38 5 36 6 36 9 7 2 -16 9 -33 15 -37z m83 46 c-1 -9 -10 -22
-20 -29 -15 -12 -15 -13 4 -18 21 -5 28 -27 9 -27 -5 0 -8 4 -5 9 3 5 -2 11
-13 14 -21 5 -34 44 -19 54 6 3 8 1 4 -5 -8 -13 10 -26 24 -17 8 5 7 11 -1 21
-9 11 -8 14 4 14 8 0 14 -7 13 -16z m77 -1 c-3 -10 -13 -24 -21 -30 -14 -12
-14 -13 0 -13 22 0 32 -16 17 -26 -8 -4 -9 -3 -5 4 5 8 0 12 -12 12 -23 0 -36
38 -20 57 16 20 49 17 41 -4z m157 8 c0 -12 -39 -21 -45 -11 -3 5 3 11 12 13
29 8 33 7 33 -2z m220 -33 c0 -24 -4 -29 -22 -26 -12 2 -23 9 -24 16 -1 7 0 8
3 2 6 -13 33 -13 33 0 0 6 -6 10 -12 11 -10 0 -10 2 0 6 10 4 10 8 1 19 -10
12 -9 13 5 8 10 -4 16 -18 16 -36z m153 -20 c7 -4 -1 -7 -18 -7 -16 0 -24 3
-17 6 6 2 13 19 13 36 l2 32 4 -30 c3 -16 10 -33 16 -37z m128 48 c-10 -11 -8
-16 9 -21 27 -9 20 -30 -11 -32 l-24 -1 24 5 25 5 -25 19 c-20 16 -22 20 -9
29 21 14 24 12 11 -4z m-3511 -42 c0 -41 -2 -45 -22 -42 -24 3 -36 34 -20 50
6 6 8 0 5 -16 -4 -19 -1 -26 11 -26 12 0 16 10 16 40 0 22 2 40 5 40 3 0 5
-21 5 -46z m2895 36 c-3 -5 1 -10 10 -10 10 0 13 5 9 12 -4 7 -3 8 4 4 19 -11
14 -26 -8 -26 -23 0 -27 -16 -5 -23 11 -4 10 -4 -2 -3 -20 1 -32 56 -13 56 6
0 8 -4 5 -10z m240 -20 c0 -16 -5 -30 -11 -30 -6 0 -9 13 -6 30 2 17 7 30 11
30 3 0 6 -13 6 -30z m300 -20 c8 0 16 12 18 28 4 25 4 24 6 -6 1 -29 -2 -33
-21 -30 -17 2 -23 10 -24 28 -1 22 0 22 3 3 2 -13 10 -23 18 -23z m-3677 9
l27 -2 -27 -4 c-18 -3 -28 -12 -31 -26 -2 -12 -4 -2 -4 23 -1 25 1 37 4 28 3
-11 15 -19 31 -19z m57 1 c-3 -5 0 -10 9 -10 8 0 17 6 19 13 4 7 6 6 6 -4 1
-10 -9 -19 -24 -21 -24 -5 -34 10 -18 25 10 10 15 8 8 -3z m105 -5 c0 -8 -7
-15 -15 -15 -8 0 -15 -5 -15 -11 0 -6 7 -9 15 -6 8 4 17 2 20 -3 4 -6 -5 -10
-19 -10 -30 0 -33 16 -8 41 21 22 22 22 22 4z m3065 -5 c3 -5 -1 -10 -10 -10
-9 0 -13 5 -10 10 3 6 8 10 10 10 2 0 7 -4 10 -10z m-240 -30 c3 -6 -1 -7 -9
-4 -18 7 -21 14 -7 14 6 0 13 -4 16 -10z m-2902 -7 c-7 -2 -19 -2 -25 0 -7 3
-2 5 12 5 14 0 19 -2 13 -5z m-11184 -63 c34 0 61 -4 61 -8 0 -5 -25 -7 -56
-4 -41 3 -55 2 -50 -7 4 -6 16 -11 27 -11 15 0 19 -7 19 -35 0 -19 -4 -35 -10
-35 -5 0 -10 14 -10 30 0 25 -4 30 -22 30 -22 -1 -23 -1 -4 -15 17 -13 18 -15
3 -15 -9 0 -17 -6 -17 -13 0 -10 -16 -14 -50 -16 l-50 -1 0 35 c0 25 4 35 16
35 8 0 12 5 8 11 -4 7 -27 10 -60 7 -30 -3 -54 -1 -54 4 0 4 24 8 53 9 28 1
63 4 77 8 14 5 33 4 42 -1 9 -4 44 -8 77 -8z m-269 -50 c0 -38 -4 -50 -15 -50
-11 0 -15 11 -15 43 0 24 3 47 7 50 16 17 23 3 23 -43z m14830 -40 l0 -90 -60
0 -60 0 0 90 0 90 60 0 60 0 0 -90z m-15022 48 c29 -29 8 -58 -44 -58 -21 0
-24 5 -24 35 0 32 3 35 28 35 15 0 33 -5 40 -12z m102 -7 c0 -11 -5 -23 -11
-27 -8 -4 -7 -9 2 -15 11 -7 11 -9 1 -9 -7 0 -15 7 -18 15 -4 8 -12 15 -20 15
-8 0 -14 -7 -14 -15 0 -8 -4 -15 -8 -15 -4 0 -6 16 -4 35 4 32 7 35 38 35 27
0 34 -4 34 -19z m40 9 c-13 -9 -13 -11 0 -20 10 -6 11 -10 3 -10 -7 0 -13 -7
-13 -15 0 -8 -4 -15 -10 -15 -5 0 -10 16 -10 35 0 30 3 35 23 35 18 0 19 -2 7
-10z m115 1 c-21 -4 -31 -13 -33 -28 -3 -18 3 -22 30 -26 l33 -4 -37 -1 c-37
-2 -38 -1 -38 33 0 34 1 35 38 34 36 -1 36 -2 7 -8z m232 -43 c-2 -13 -4 -5
-4 17 -1 22 1 32 4 23 2 -10 2 -28 0 -40z m93 15 c-1 -31 -3 -35 -11 -20 -5 9
-18 17 -29 17 -10 0 -21 -8 -23 -17 -3 -10 -5 -1 -6 20 -1 36 0 37 34 37 34 0
35 -1 35 -37z m90 2 c0 -19 -4 -35 -10 -35 -5 0 -10 14 -10 30 0 23 -5 30 -19
30 -15 0 -21 -8 -24 -32 -4 -32 -4 -32 -5 5 -2 36 -1 37 33 37 33 0 35 -2 35
-35z m145 5 c14 0 25 7 28 18 4 13 5 11 6 -5 1 -14 -5 -23 -14 -23 -8 0 -15
-7 -15 -15 0 -12 -4 -11 -20 5 -11 11 -19 28 -19 38 1 16 2 16 6 0 3 -11 14
-18 28 -18z m113 19 c-10 -5 -19 -22 -19 -37 -2 -27 -2 -27 -6 -2 -2 14 -12
31 -21 38 -13 10 -10 12 24 12 31 -1 36 -3 22 -11z m97 -24 c0 -27 -4 -30 -32
-33 -32 -3 -33 -2 -33 33 0 35 1 36 33 33 28 -3 32 -6 32 -33z m5710 -9 c22
-33 5 -66 -33 -66 -49 0 -69 42 -36 74 23 23 51 20 69 -8z m-6468 8 c-3 -3
-12 -4 -19 -1 -8 3 -5 6 6 6 11 1 17 -2 13 -5z m14893 2 c0 -3 -4 -8 -10 -11
-5 -3 -10 -1 -10 4 0 6 5 11 10 11 6 0 10 -2 10 -4z m29 -41 c0 -5 -4 -3 -9 5
-5 8 -9 22 -9 30 0 16 17 -16 18 -35z m-89 5 c-6 -11 -13 -20 -16 -20 -2 0 0
9 6 20 6 11 13 20 16 20 2 0 0 -9 -6 -20z m-3598 -47 c-7 -36 -12 -27 -11 20
0 30 3 36 8 23 4 -11 6 -30 3 -43z m108 42 c28 -34 -16 -84 -47 -53 -14 14
-15 22 -5 43 13 28 33 32 52 10z m65 -20 c17 37 19 29 4 -14 -13 -37 -25 -40
-33 -7 -3 13 -8 32 -11 43 -3 10 2 2 11 -17 l16 -35 13 30z m3476 21 c12 7 11
-7 -1 -26 -6 -9 -10 -10 -10 -3 0 6 -2 17 -3 25 -2 7 -2 10 0 5 3 -4 9 -5 14
-1z m-3313 -50 c3 -12 -4 -16 -25 -15 -23 1 -24 2 -5 6 12 2 22 8 22 12 0 5
-10 16 -22 26 -23 17 -23 17 2 3 14 -9 26 -23 28 -32z m64 14 c3 -19 0 -30 -7
-30 -7 0 -10 11 -7 30 2 17 5 30 7 30 2 0 5 -13 7 -30z m74 6 c-14 -23 -14
-25 2 -29 9 -3 4 -5 -12 -6 -28 -1 -28 0 -13 17 10 10 17 24 17 30 0 7 5 12
11 12 7 0 5 -9 -5 -24z m58 -1 c-3 -19 0 -25 13 -26 11 0 13 -3 5 -6 -22 -9
-43 16 -31 38 13 26 19 24 13 -6z m-11286 8 c-10 -2 -28 -2 -40 0 -13 2 -5 4
17 4 22 1 32 -1 23 -4z m4687 -17 c30 -45 -20 -91 -64 -59 -23 16 -28 52 -9
71 20 20 56 14 73 -12z m-5191 3 c-3 -6 -15 -9 -25 -6 -10 3 -22 1 -25 -4 -3
-5 9 -9 25 -9 24 0 31 -4 31 -20 0 -17 -6 -20 -42 -18 -37 1 -39 2 -10 5 40 5
42 23 2 23 -23 0 -30 4 -30 20 0 17 7 20 41 20 26 0 38 -4 33 -11z m96 -23 c0
-31 -3 -34 -35 -38 -19 -2 -35 0 -35 4 0 4 11 8 25 8 28 0 35 20 8 21 -15 0
-15 2 2 9 18 8 17 9 -7 9 -41 1 -34 21 7 21 33 0 35 -2 35 -34z m85 25 c-6 -5
-21 -11 -35 -14 -21 -4 -20 -4 8 -6 25 -1 32 -5 32 -21 0 -17 -7 -20 -40 -20
-39 0 -40 1 -40 35 0 34 1 35 42 35 26 0 38 -4 33 -9z m95 -26 c0 -41 -19 -48
-21 -7 l-2 27 -4 -27 c-2 -16 -9 -28 -14 -28 -5 0 -10 12 -10 28 l-2 27 -4
-27 c-6 -37 -23 -36 -23 0 0 37 6 42 47 42 31 0 33 -2 33 -35z m10498 28
c-137 -2 -359 -2 -495 0 -137 1 -25 2 247 2 272 0 384 -1 248 -2z m4075 0 c-7
-2 -19 -2 -25 0 -7 3 -2 5 12 5 14 0 19 -2 13 -5z m-3833 -103 c0 -7 -168 -10
-485 -10 -317 0 -485 3 -485 10 0 7 168 10 485 10 317 0 485 -3 485 -10z m400
-120 l0 -90 -65 0 -65 0 0 90 0 90 65 0 65 0 0 -90z m3141 -13 c-5 -5 -17 -7
-26 -4 -24 10 -30 37 -10 55 16 16 16 16 4 -5 -10 -17 -11 -25 -2 -34 16 -16
36 -1 30 23 -3 11 -3 27 1 36 5 11 8 4 10 -22 2 -21 -1 -43 -7 -49z m-464 56
c-16 -16 -15 -19 6 -43 l22 -25 -30 25 c-16 14 -32 26 -34 28 -6 3 32 31 44
32 5 0 2 -8 -8 -17z m305 -33 c4 -25 1 -30 -16 -30 -16 0 -18 2 -7 9 8 5 12
19 9 35 -3 14 -2 23 2 21 4 -3 10 -18 12 -35z m-11668 24 c9 -4 16 -18 16 -33
0 -52 -48 -69 -75 -27 -29 43 8 80 59 60z m11433 -6 c2 6 9 10 14 6 16 -9 -1
-24 -27 -24 -23 0 -31 10 -17 23 4 4 11 2 16 -5 7 -10 10 -10 14 0z m73 -19
c0 8 3 12 6 8 3 -3 1 -14 -4 -24 -10 -16 -12 -15 -21 10 -15 39 -13 47 4 17 8
-14 14 -19 15 -11z m98 4 c-2 -14 -10 -29 -18 -31 -13 -5 -13 -3 -1 11 7 9 11
24 7 32 -3 8 -1 15 5 15 6 0 9 -12 7 -27z m109 -20 c-3 -10 -5 -2 -5 17 0 19
2 27 5 18 2 -10 2 -26 0 -35z m40 10 c-3 -10 -5 -4 -5 12 0 17 2 24 5 18 2 -7
2 -21 0 -30z m-2437 14 c0 -7 -7 -22 -15 -34 -14 -20 -13 -22 2 -26 11 -3 7
-5 -10 -6 l-28 -1 22 29 c12 16 18 34 15 40 -4 6 -2 11 3 11 6 0 11 -6 11 -13z
m46 4 c-3 -5 6 -16 20 -26 24 -15 25 -19 11 -32 -24 -25 -45 -9 -44 31 1 20 5
36 10 36 4 0 6 -4 3 -9z m2075 -39 c-7 -2 -18 1 -23 6 -8 8 -4 9 13 5 13 -4
18 -8 10 -11z m-3691 -22 c0 -5 -2 -10 -4 -10 -3 0 -8 5 -11 10 -3 6 -1 10 4
10 6 0 11 -4 11 -10z m-156 -47 c8 -28 16 -42 19 -33 3 8 9 28 14 44 13 41 33
45 33 8 0 -16 3 -50 6 -76 5 -31 3 -46 -5 -46 -7 0 -11 21 -11 56 0 60 -14 65
-24 8 -9 -44 -26 -40 -42 12 l-12 39 -2 -40 c-1 -22 -5 -49 -10 -60 -7 -15 -9
-9 -9 26 -1 57 9 109 20 109 5 0 15 -21 23 -47z m-2042 -10 c22 -20 23 -41 1
-65 -32 -36 -83 -17 -83 32 0 48 45 67 82 33z m2198 -28 c0 -38 4 -47 23 -55
18 -7 13 -9 -23 -8 -25 0 -37 2 -27 5 13 3 17 15 17 48 0 33 -4 45 -17 48 -14
4 -12 5 5 6 20 1 22 -4 22 -44z m133 38 c-32 -4 -49 -33 -19 -33 8 0 24 -8 37
-19 20 -16 21 -21 10 -35 -14 -17 -66 -22 -75 -7 -3 5 8 8 25 7 44 -2 46 18 5
42 -46 27 -40 53 13 50 l36 -1 -32 -4z m147 0 c-35 -7 -50 -21 -50 -48 0 -29
24 -49 50 -42 11 3 18 1 14 -4 -8 -13 -48 -11 -62 3 -7 7 -12 26 -12 43 0 40
16 55 55 54 27 -2 27 -2 5 -6z m3395 -95 c-24 -68 -26 -72 -35 -58 -6 8 -10
20 -10 25 0 6 4 4 9 -3 6 -10 11 -6 19 17 6 17 13 31 16 31 3 0 3 -6 1 -12z
m58 -43 l21 -30 -21 18 c-21 18 -21 18 -26 0 -3 -10 -5 2 -5 27 0 25 2 38 5
30 3 -8 15 -28 26 -45z m-2 32 c-10 -9 -11 -8 -5 6 3 10 9 15 12 12 3 -3 0
-11 -7 -18z m203 -14 c-9 -52 -14 -54 -14 -5 0 23 5 42 10 42 7 0 8 -14 4 -37z
m46 -5 c0 -49 -5 -47 -14 5 -4 23 -3 37 4 37 5 0 10 -19 10 -42z m34 27 c-4
-10 0 -15 12 -16 17 -1 17 -2 2 -6 -26 -6 -22 -31 5 -36 19 -4 18 -4 -5 -6
-26 -1 -28 2 -28 39 0 22 4 40 10 40 5 0 7 -7 4 -15z m73 -17 c-3 -7 -5 -2 -5
12 0 14 2 19 5 13 2 -7 2 -19 0 -25z m41 -8 c-1 -22 -5 -40 -10 -40 -4 0 -8 4
-8 9 0 5 -3 18 -6 28 -5 15 -4 15 5 3 9 -12 11 -10 11 13 0 15 2 27 5 27 3 0
4 -18 3 -40z m50 -28 c11 2 19 17 23 38 6 34 6 34 8 5 1 -39 -12 -58 -35 -53
-14 2 -19 12 -20 38 l-1 35 4 -33 c3 -25 9 -32 21 -30z m-3021 -19 c-2 -16 -4
-5 -4 22 0 28 2 40 4 28 2 -13 2 -35 0 -50z m-384 42 c-3 -9 -8 -14 -10 -11
-3 3 -2 9 2 15 9 16 15 13 8 -4z m3183 -12 c-10 -10 -19 5 -10 18 6 11 8 11
12 0 2 -7 1 -15 -2 -18z m-2862 -9 c-4 -17 -2 -29 7 -36 12 -8 11 -9 -1 -5
-17 4 -27 67 -10 67 6 0 8 -10 4 -26z m329 9 c-3 -10 -12 -23 -20 -29 -11 -10
-10 -12 7 -17 11 -3 20 -11 19 -19 0 -10 -2 -10 -6 0 -2 6 -13 12 -23 12 -10
0 -20 8 -23 19 -3 15 0 17 16 13 17 -4 19 -1 15 16 -4 15 -2 22 8 22 8 0 11
-6 7 -17z m-551 -23 c-2 -16 -6 -30 -8 -30 -2 0 -4 14 -4 30 0 17 4 30 8 30 5
0 7 -13 4 -30z m60 5 c-3 -19 0 -25 13 -25 13 0 16 6 12 26 -3 16 -1 22 5 16
16 -16 4 -47 -20 -50 -19 -3 -22 1 -22 27 0 17 4 31 9 31 4 0 6 -11 3 -25z
m70 0 c-3 -19 0 -25 13 -25 13 0 16 6 13 25 -3 14 -1 25 3 25 5 0 9 -13 9 -30
0 -23 -4 -30 -20 -30 -23 0 -35 22 -26 45 9 23 14 18 8 -10z m196 -16 c-3 -20
-5 -19 -9 9 -3 20 -2 29 4 23 5 -5 7 -19 5 -32z m122 37 c0 -3 -4 -8 -10 -11
-5 -3 -10 -1 -10 4 0 6 5 11 10 11 6 0 10 -2 10 -4z m-515 -16 c3 -6 -1 -7 -9
-4 -18 7 -21 14 -7 14 6 0 13 -4 16 -10z m92 -27 c-3 -10 -5 -4 -5 12 0 17 2
24 5 18 2 -7 2 -21 0 -30z m2996 20 c-7 -2 -21 -2 -30 0 -10 3 -4 5 12 5 17 0
24 -2 18 -5z m-3083 -23 c0 -5 -12 -10 -27 -9 l-28 1 25 8 c14 4 26 8 28 9 1
1 2 -3 2 -9z m453 -7 c-7 -2 -19 -2 -25 0 -7 3 -2 5 12 5 14 0 19 -2 13 -5z
m-965 -100 c-137 -2 -359 -2 -495 0 -137 1 -25 2 247 2 272 0 384 -1 248 -2z
m597 -88 l0 -90 -62 -3 -63 -3 0 89 c0 49 3 92 7 96 4 4 32 6 63 4 l55 -3 0
-90z m599 19 c3 -8 2 -12 -4 -9 -6 3 -10 10 -10 16 0 14 7 11 14 -7z m165 -34
c0 -10 -3 -8 -9 5 -12 27 -12 43 0 25 5 -8 9 -22 9 -30z m37 5 c0 -18 -3 -32
-8 -29 -13 8 -8 64 6 64 1 0 1 -16 2 -35z m34 -2 c0 -43 -5 -41 -13 5 -4 18
-2 32 3 32 6 0 10 -16 10 -37z m-113 -25 c-3 -8 -6 -5 -6 6 -1 11 2 17 5 13 3
-3 4 -12 1 -19z m-137 -8 c12 -7 10 -9 -8 -7 -12 0 -22 5 -22 9 0 11 12 10 30
-2z m80 0 c0 -5 -2 -10 -4 -10 -3 0 -8 5 -11 10 -3 6 -1 10 4 10 6 0 11 -4 11
-10z m-11772 -57 c-32 -2 -86 -2 -120 0 -35 2 -9 3 57 3 66 0 94 -1 63 -3z
m3085 0 c-189 -2 -497 -2 -685 0 -189 1 -35 2 342 2 377 0 531 -1 343 -2z
m2757 -83 c24 -24 25 -38 3 -62 -33 -37 -83 -17 -83 34 0 45 46 62 80 28z
m5620 -49 c0 -22 5 -42 13 -44 7 -3 5 -6 -5 -6 -14 -1 -18 7 -18 38 0 22 -5
42 -12 44 -8 3 -6 6 5 6 13 1 17 -7 17 -38z m-4586 13 c9 -8 16 -23 16 -31 0
-21 -29 -53 -48 -53 -24 0 -52 31 -52 56 0 40 55 58 84 28z m4134 -15 c16 -1
16 -2 0 -6 -9 -2 -19 -14 -21 -26 -2 -12 -4 -2 -4 23 -1 25 1 37 4 28 2 -10
12 -19 21 -19z m52 12 c-12 -23 -3 -51 15 -51 19 0 29 38 15 55 -9 10 -9 15
-1 15 17 0 25 -48 11 -65 -17 -21 -37 -19 -50 5 -12 22 -5 60 11 60 6 0 6 -7
-1 -19z m110 -18 c-11 -17 -11 -17 -6 0 3 10 6 24 7 30 0 9 2 9 5 0 3 -7 0
-20 -6 -30z m470 17 c0 -5 -6 -9 -12 -7 -8 1 -13 -9 -13 -25 1 -16 -4 -28 -11
-28 -14 0 -6 52 10 62 15 11 26 10 26 -2z m-232 -31 c-3 -8 -7 -3 -11 10 -4
17 -3 21 5 13 5 -5 8 -16 6 -23z m112 16 c-14 -17 -5 -35 17 -35 11 0 14 7 11
25 -3 13 -1 22 3 19 15 -9 10 -44 -7 -51 -21 -8 -46 19 -38 40 3 9 11 17 16
17 6 0 5 -6 -2 -15z m-360 -36 c0 -6 -4 -7 -10 -4 -5 3 -10 11 -10 16 0 6 5 7
10 4 6 -3 10 -11 10 -16z m156 -7 c-10 -2 -22 0 -28 6 -6 6 0 7 19 4 21 -5 23
-7 9 -10z m84 2 c0 -2 -9 -4 -20 -4 -11 0 -20 4 -20 9 0 5 9 7 20 4 11 -3 20
-7 20 -9z m5385 -79 c52 -51 15 -135 -59 -135 -42 0 -76 37 -76 82 0 39 40 78
80 78 19 0 40 -9 55 -25z m-4147 -107 l-3 -103 -102 -3 -103 -3 0 106 0 105
105 0 106 0 -3 -102z m-1578 8 c0 -8 -8 -20 -17 -27 -16 -13 -17 -12 -4 3 7
10 11 25 7 33 -3 9 -2 13 4 10 6 -3 10 -12 10 -19z m123 4 c3 -11 1 -20 -4
-20 -5 0 -9 9 -9 20 0 11 2 20 4 20 2 0 6 -9 9 -20z m247 1 c0 -4 -7 -16 -16
-27 -14 -18 -15 -18 -4 4 6 12 8 28 4 34 -4 7 -3 8 4 4 7 -4 12 -11 12 -15z
m56 -11 c8 0 14 -4 14 -9 0 -5 -9 -7 -20 -4 -13 3 -20 13 -19 27 1 17 2 17 6
4 2 -10 11 -18 19 -18z m304 6 c0 -8 -8 -20 -17 -27 -16 -13 -17 -12 -4 3 7
10 11 25 7 33 -3 9 -2 13 4 10 6 -3 10 -12 10 -19z m117 -8 c-3 -7 -5 -2 -5
12 0 14 2 19 5 13 2 -7 2 -19 0 -25z m290 0 c-3 -7 -5 -2 -5 12 0 14 2 19 5
13 2 -7 2 -19 0 -25z m79 12 c0 -12 -4 -16 -9 -11 -5 5 -6 14 -3 20 10 15 12
14 12 -9z m-126 -20 c-6 -11 -13 -20 -16 -20 -2 0 0 9 6 20 6 11 13 20 16 20
2 0 0 -9 -6 -20z m-10298 -7 c22 -20 23 -51 1 -75 -45 -50 -125 11 -88 68 18
28 60 32 87 7z m9288 -14 c0 -10 -3 -19 -7 -19 -5 0 -8 11 -8 24 0 13 3 22 8
19 4 -2 7 -13 7 -24z m75 -9 c-3 -6 -12 -10 -18 -10 -9 0 -8 3 1 8 7 5 10 17
7 28 -6 17 -6 18 5 1 6 -9 8 -22 5 -27z m655 9 c0 -10 -3 -19 -7 -19 -5 0 -8
11 -8 24 0 13 3 22 8 19 4 -2 7 -13 7 -24z m75 -9 c-3 -6 -12 -10 -18 -10 -9
0 -8 3 1 8 7 5 10 17 7 28 -6 17 -6 18 5 1 6 -9 8 -22 5 -27z m285 30 c0 -5
-2 -10 -4 -10 -3 0 -8 5 -11 10 -3 6 -1 10 4 10 6 0 11 -4 11 -10z m-730 -30
c0 -5 -5 -10 -11 -10 -5 0 -7 5 -4 10 3 6 8 10 11 10 2 0 4 -4 4 -10z m80 0
c0 -5 -5 -10 -11 -10 -5 0 -7 5 -4 10 3 6 8 10 11 10 2 0 4 -4 4 -10z m650 0
c0 -5 -5 -10 -11 -10 -5 0 -7 5 -4 10 3 6 8 10 11 10 2 0 4 -4 4 -10z m-1193
-6 c-3 -3 -12 -4 -19 -1 -8 3 -5 6 6 6 11 1 17 -2 13 -5z m363 2 c0 -3 -4 -8
-10 -11 -5 -3 -10 -1 -10 4 0 6 5 11 10 11 6 0 10 -2 10 -4z m367 -2 c-3 -3
-12 -4 -19 -1 -8 3 -5 6 6 6 11 1 17 -2 13 -5z m363 2 c0 -3 -4 -8 -10 -11 -5
-3 -10 -1 -10 4 0 6 5 11 10 11 6 0 10 -2 10 -4z m-12382 -18 c21 -21 14 -66
-13 -84 -30 -20 -62 -11 -77 22 -17 37 6 74 47 74 17 0 36 -5 43 -12z m6610
-31 c21 -16 14 -55 -13 -73 -23 -15 -27 -15 -50 0 -31 20 -33 59 -4 80 21 14
42 12 67 -7z m-3606 -23 c69 -35 94 -139 49 -202 -79 -112 -263 -61 -263 73 0
118 106 183 214 129z m4866 -96 c7 -7 12 -25 12 -40 0 -40 -39 -58 -75 -34
-29 19 -32 42 -8 68 18 21 53 24 71 6z m3594 -34 c-2 -55 -12 -54 -12 1 0 27
3 45 7 42 3 -4 6 -23 5 -43z m268 0 c0 -41 -2 -45 -22 -42 -30 4 -38 52 -11
62 14 6 16 5 6 -5 -18 -18 -16 -49 2 -49 11 0 15 11 15 40 0 22 2 40 5 40 3 0
5 -21 5 -46z m-477 23 c19 16 20 16 8 1 -11 -15 -11 -22 4 -45 l18 -28 -26 23
c-23 22 -26 22 -30 5 -3 -10 -5 0 -5 22 0 22 2 32 5 22 5 -18 5 -18 26 0z m97
-23 c0 -8 -9 -14 -20 -14 -25 0 -26 -17 -2 -24 13 -4 13 -4 -3 -3 -23 3 -34
45 -14 57 16 11 39 1 39 -16z m210 -9 c0 -13 6 -26 13 -28 6 -3 3 -6 -8 -6
-16 -1 -20 5 -20 33 0 19 3 32 8 29 4 -2 7 -15 7 -28z m-141 -5 c-12 -32 -29
-41 -29 -14 0 8 4 13 9 10 5 -3 11 3 14 14 3 11 8 20 11 20 3 0 0 -13 -5 -30z
m77 -16 c-3 -8 -11 -14 -18 -13 -10 0 -10 2 0 6 6 2 13 17 13 31 1 18 3 21 6
9 3 -10 2 -25 -1 -33z m121 9 c-3 -10 -5 -4 -5 12 0 17 2 24 5 18 2 -7 2 -21
0 -30z m41 1 c-3 -14 -5 -12 -10 9 -3 19 -2 25 4 19 6 -6 8 -18 6 -28z m-8477
-54 c26 -15 26 -66 -1 -80 -57 -31 -116 24 -75 70 20 22 46 25 76 10z m-318
-108 c23 -20 22 -43 -3 -70 -24 -26 -47 -28 -78 -6 -32 22 -29 65 5 86 28 17
47 14 76 -10z m4037 -101 c16 -31 12 -49 -15 -67 -48 -31 -101 15 -70 62 20
30 69 33 85 5z m1978 -157 c47 -32 9 -107 -45 -88 -40 14 -48 50 -18 80 28 28
33 29 63 8z m-398 -14 c24 -24 25 -38 4 -68 -18 -26 -50 -28 -76 -5 -25 22
-23 59 4 77 30 21 44 20 68 -4z m-4212 -112 c17 -17 15 -63 -2 -77 -24 -20
-69 -9 -85 21 -14 24 -14 28 3 47 21 23 65 28 84 9z m4671 -74 c19 -13 22 -23
18 -49 -5 -30 -2 -33 35 -50 54 -23 115 -86 141 -144 43 -94 17 -267 -45 -290
-13 -5 -24 -5 -26 0 -2 5 -17 9 -33 9 -28 0 -29 -2 -29 -46 0 -43 -2 -46 -37
-61 -58 -25 -166 -22 -231 6 -73 33 -147 115 -168 188 -48 166 66 338 244 368
32 5 42 11 42 26 0 22 33 59 53 59 7 0 23 -7 36 -16z m8279 -233 c3 -25 -2
-33 -22 -43 -22 -9 -29 -8 -46 7 -26 23 -25 50 1 69 32 22 63 6 67 -33z
m-16440 -98 c-21 -2 -55 -2 -75 0 -21 2 -4 4 37 4 41 0 58 -2 38 -4z m8245
-233 c-4 -14 0 -20 11 -20 9 0 16 8 17 18 1 9 5 1 9 -18 10 -42 6 -50 -26 -50
-21 0 -24 4 -24 38 0 33 6 52 16 52 1 0 0 -9 -3 -20z m90 13 c-7 -2 -19 -2
-25 0 -7 3 -2 5 12 5 14 0 19 -2 13 -5z m214 -25 c-3 -7 -5 -2 -5 12 0 14 2
19 5 13 2 -7 2 -19 0 -25z m122 -15 c-1 -27 -4 -38 -6 -25 -3 16 -12 22 -31
23 l-27 2 28 4 c19 3 27 10 27 24 0 10 2 19 5 19 3 0 4 -21 4 -47z m121 8 c0
-29 5 -41 18 -45 13 -4 13 -4 -3 -3 -15 2 -21 11 -23 37 -2 19 -9 38 -15 42
-8 5 -6 8 6 8 13 0 17 -8 17 -39z m-160 19 c0 -5 -2 -10 -4 -10 -3 0 -8 5 -11
10 -3 6 -1 10 4 10 6 0 11 -4 11 -10z m-290 -29 c0 -16 6 -32 13 -34 7 -4 6
-6 -4 -6 -9 -1 -20 6 -23 15 -9 24 -7 54 4 54 6 0 10 -13 10 -29z m170 18 c0
-5 -4 -8 -8 -5 -4 2 -14 1 -21 -4 -19 -11 -7 -38 21 -43 21 -4 21 -4 -4 -6
-35 -1 -50 36 -22 56 22 16 34 17 34 2z m535 -6 c-2 -10 -4 -21 -4 -25 -1 -3
-9 -9 -18 -11 -14 -4 -12 -5 5 -6 25 -1 30 -26 6 -35 -9 -3 -23 -1 -32 4 -14
9 -13 10 5 5 12 -3 24 -2 27 3 3 6 -3 12 -14 15 -23 6 -27 27 -5 27 8 0 15 7
15 15 0 18 -12 19 -28 3 -8 -8 -12 -9 -12 -1 0 12 16 21 42 22 10 1 15 -5 13
-16z m78 0 c-3 -10 -13 -24 -21 -30 -14 -11 -13 -13 6 -13 12 0 22 -6 22 -14
0 -20 -39 -31 -54 -16 -8 9 -6 11 11 6 12 -4 24 -2 28 4 3 5 -2 10 -13 10 -24
0 -40 49 -20 61 24 16 48 10 41 -8z m-691 -23 c4 -26 1 -30 -19 -30 -16 0 -23
6 -23 20 0 11 7 20 15 20 8 0 15 5 15 10 0 22 8 8 12 -20z m145 19 c-18 -10
-18 -11 0 -32 l18 -21 -26 20 c-24 17 -25 20 -10 31 9 7 21 12 26 12 6 0 2 -4
-8 -10z m125 -14 c-3 -19 0 -25 13 -25 13 0 16 6 13 25 -3 14 -1 25 3 25 5 0
9 -14 9 -31 0 -26 -3 -30 -22 -27 -17 2 -24 11 -26 31 -2 15 1 27 6 27 5 0 7
-11 4 -25z m174 5 c9 0 12 5 8 12 -4 7 -3 8 4 4 21 -13 12 -26 -18 -26 -24 0
-28 3 -23 17 4 11 8 12 11 5 2 -7 10 -12 18 -12z m-246 -25 c0 -8 -4 -15 -10
-15 -5 0 -7 7 -4 15 4 8 8 15 10 15 2 0 4 -7 4 -15z m270 -11 c0 -2 -11 -4
-25 -4 -14 0 -25 4 -25 9 0 4 11 6 25 3 14 -2 25 -6 25 -8z m-1974 -14 c35 0
44 -3 44 -17 0 -25 -17 -49 -27 -39 -4 5 -2 11 5 13 6 3 12 11 12 19 0 21 -64
18 -81 -3 -13 -16 -12 -17 4 -4 10 8 17 9 17 3 0 -6 -5 -14 -10 -17 -6 -4 -8
-11 -5 -16 4 -5 -1 -9 -9 -9 -10 0 -13 -6 -10 -15 4 -8 15 -15 25 -15 14 0 19
7 19 30 0 17 5 30 10 30 6 0 10 -16 10 -35 0 -34 -1 -35 -40 -35 -38 0 -40 1
-40 33 0 17 -7 40 -14 50 -17 22 -76 24 -76 2 0 -10 10 -15 34 -15 31 0 34 -3
38 -35 2 -19 0 -35 -4 -35 -4 0 -8 7 -8 15 0 21 -37 19 -49 -2 -8 -15 -10 -11
-11 19 0 20 -4 40 -10 43 -5 3 -10 12 -10 20 0 10 17 15 58 18 31 1 63 2 70 0
8 -2 34 -3 58 -3z m-206 -45 c0 -33 -4 -45 -15 -45 -11 0 -15 12 -15 45 0 33
4 45 15 45 11 0 15 -12 15 -45z m1551 25 c37 0 49 -4 49 -15 0 -8 -4 -15 -10
-15 -5 0 -10 5 -10 10 0 16 -67 12 -74 -5 -4 -12 3 -15 34 -15 39 0 40 -1 40
-36 0 -35 -1 -35 -37 -32 -33 3 -39 7 -44 33 -6 29 -7 29 -8 4 -1 -27 -17 -39
-52 -39 -15 0 -19 7 -19 35 0 31 3 35 26 35 22 0 25 2 14 15 -15 18 -86 20
-93 3 -3 -8 -6 -6 -6 4 -1 14 10 18 57 21 31 1 63 2 70 0 8 -2 36 -3 63 -3z
m-221 -40 c0 -29 -4 -40 -15 -40 -17 0 -18 4 -9 49 9 44 24 39 24 -9z m-580
16 c0 -10 -11 -12 -44 -9 -43 5 -45 4 -48 -23 -3 -26 -7 -29 -43 -31 l-40 -1
35 7 c35 7 30 14 -15 24 -11 3 -5 5 15 6 25 1 31 4 23 12 -6 6 -32 10 -57 8
-32 -3 -46 0 -46 8 0 10 28 13 110 13 87 0 110 -3 110 -14z m-1010 -19 c0 -5
9 -2 20 8 20 18 20 17 19 -21 -1 -21 -4 -29 -6 -18 -3 15 -12 22 -28 22 -16 0
-25 -7 -28 -22 -2 -12 -5 -4 -6 16 -1 29 2 36 14 32 8 -4 15 -11 15 -17z m67
-29 c-2 -13 -4 -5 -4 17 -1 22 1 32 4 23 2 -10 2 -28 0 -40z m71 45 c-35 -5
-37 -23 -3 -23 18 0 25 -5 25 -20 0 -17 -6 -20 -37 -19 -28 1 -31 3 -13 6 40
7 48 23 12 23 -25 0 -32 4 -32 20 0 17 6 20 38 19 30 -2 32 -3 10 -6z m62 -34
c0 -16 -4 -29 -10 -29 -5 0 -10 16 -10 36 0 21 4 33 10 29 6 -3 10 -19 10 -36z
m17 -11 c-2 -13 -4 -5 -4 17 -1 22 1 32 4 23 2 -10 2 -28 0 -40z m343 48 c0
-2 -7 -7 -16 -10 -8 -3 -12 -2 -9 4 6 10 25 14 25 6z m210 -21 c0 -16 -6 -25
-15 -25 -9 0 -15 9 -15 25 0 16 6 25 15 25 9 0 15 -9 15 -25z m620 -15 c0 -16
-7 -20 -30 -20 -41 0 -38 -20 3 -21 24 -1 20 -3 -18 -9 -27 -4 -52 -6 -54 -4
-2 2 1 4 7 4 7 0 12 9 12 20 0 16 7 20 30 20 17 0 30 5 30 11 0 8 -14 10 -42
6 -27 -4 -37 -2 -27 4 7 5 31 9 52 9 30 0 37 -4 37 -20z m90 0 c0 -16 -7 -20
-30 -20 -40 0 -38 -18 3 -23 l32 -4 -36 -1 c-24 -1 -39 3 -42 12 -7 19 1 26
30 26 32 0 29 18 -4 23 -23 3 -21 4 10 6 31 1 37 -2 37 -19z m39 3 c9 -16 12
-16 22 -3 9 13 10 13 6 0 -2 -8 -12 -14 -21 -14 -10 1 -16 -6 -16 -17 0 -10
-4 -19 -10 -19 -5 0 -10 16 -10 35 0 38 13 45 29 18z m129 10 c-11 -3 -18 -14
-18 -28 0 -14 7 -25 18 -28 9 -3 -1 -5 -23 -5 -22 0 -34 2 -27 5 6 2 12 18 12
34 0 25 4 29 28 28 16 -1 20 -3 10 -6z m277 -29 c1 -22 -3 -30 -12 -27 -7 3
-13 9 -13 14 0 17 -28 9 -33 -8 -3 -10 -5 -1 -6 20 -1 37 0 38 32 35 29 -3 32
-6 32 -34z m83 29 c-11 -3 -18 -14 -18 -28 0 -14 7 -25 18 -28 9 -3 -1 -5 -23
-6 -32 0 -36 2 -22 10 9 5 17 16 17 24 0 8 -8 19 -17 24 -14 8 -10 10 22 10
22 -1 32 -3 23 -6z m102 -28 c0 -19 -4 -35 -10 -35 -5 0 -10 7 -10 15 0 8 -9
15 -20 15 -11 0 -20 -7 -20 -15 0 -8 -4 -15 -10 -15 -11 0 -14 53 -3 63 3 4
21 7 40 7 31 0 33 -2 33 -35z m90 15 c0 -16 -7 -20 -30 -20 -40 0 -38 -18 3
-23 31 -4 31 -4 -5 -5 -32 -2 -38 1 -38 18 0 15 7 20 25 20 34 0 32 18 -2 23
-23 3 -21 4 10 6 31 1 37 -2 37 -19z m90 0 c0 -16 -7 -20 -30 -20 -40 0 -38
-18 3 -23 31 -4 31 -4 -5 -5 -32 -2 -38 1 -38 18 0 15 7 20 25 20 34 0 32 18
-2 23 -23 3 -21 4 10 6 31 1 37 -2 37 -19z m-1789 -44 c5 -6 9 3 10 25 1 19 3
25 6 14 10 -45 17 -50 23 -15 l7 35 2 -37 c1 -37 0 -38 -34 -38 -34 0 -35 1
-34 38 1 27 3 30 6 12 3 -14 9 -29 14 -34z m114 -7 c29 -6 29 -7 -7 -8 -38 -1
-38 -1 -37 37 1 36 2 36 8 7 5 -23 13 -31 36 -36z m117 38 c4 -20 1 -23 -24
-19 -21 3 -28 0 -28 -12 0 -9 -4 -16 -10 -16 -5 0 -10 16 -10 35 0 33 2 35 34
35 27 0 35 -4 38 -23z m87 9 c8 -10 9 -16 1 -21 -5 -3 -10 1 -10 9 0 8 -8 17
-17 19 -15 4 -15 5 -2 6 9 0 22 -5 28 -13z m164 7 c-40 -5 -43 -20 -5 -26 22
-3 20 -4 -10 -6 -32 -1 -38 2 -38 19 0 17 6 20 43 18 36 -1 38 -2 10 -5z m90
0 c-40 -5 -43 -20 -6 -25 36 -4 46 -38 11 -37 -13 0 -17 3 -10 6 23 9 12 23
-18 23 -23 0 -30 4 -30 20 0 17 6 20 43 18 36 -1 38 -2 10 -5z m117 -13 c0
-16 -7 -20 -30 -20 -40 0 -38 -18 3 -23 28 -3 26 -4 -10 -5 -37 -2 -43 1 -43
18 0 16 7 20 30 20 40 0 38 18 -2 23 -29 3 -27 4 10 5 36 2 42 -1 42 -18z m63
13 c-41 -5 -43 -23 -3 -23 23 0 30 -4 30 -20 0 -17 -6 -20 -42 -18 -37 1 -39
2 -10 5 40 5 42 23 2 23 -23 0 -30 4 -30 20 0 17 6 20 43 18 36 -1 38 -2 10
-5z m407 -23 c0 -5 -2 -10 -4 -10 -3 0 -8 5 -11 10 -3 6 -1 10 4 10 6 0 11 -4
11 -10z m-903 -32 c-3 -7 -5 -2 -5 12 0 14 2 19 5 13 2 -7 2 -19 0 -25z
m-6693 0 c13 -19 14 -25 2 -43 -7 -11 -24 -20 -36 -20 -12 0 -29 9 -36 20 -12
18 -11 24 2 43 8 12 24 22 34 22 10 0 26 -10 34 -22z m6681 -18 c14 0 25 7 28
18 3 9 5 -1 5 -23 0 -22 -2 -32 -5 -22 -3 11 -14 17 -34 17 -24 0 -29 4 -28
23 1 16 2 18 6 5 3 -11 14 -18 28 -18z m103 23 c-35 -5 -37 -23 -3 -23 18 0
25 -5 25 -20 0 -16 -7 -20 -35 -20 -33 0 -35 2 -35 35 0 34 1 35 38 34 30 -2
32 -3 10 -6z m114 -28 c4 -35 4 -35 -34 -35 -37 0 -38 1 -38 35 0 33 2 35 34
35 31 0 34 -3 38 -35z m87 -2 c-2 -31 -3 -33 -6 -10 -2 15 -9 27 -14 27 -5 0
-10 -12 -10 -27 -1 -25 -2 -24 -9 7 -6 35 -13 30 -23 -15 -3 -11 -5 -3 -6 18
-1 36 0 37 34 37 34 0 35 -1 34 -37z m-769 7 c0 -15 -7 -20 -25 -20 -34 0 -32
-18 3 -23 22 -3 20 -4 -10 -6 -32 -1 -38 2 -38 19 0 16 7 20 32 20 36 0 28 16
-12 23 -18 3 -15 5 13 6 31 1 37 -2 37 -19z m90 -15 c0 -33 -2 -35 -35 -35
-33 0 -35 2 -35 35 0 33 2 35 35 35 33 0 35 -2 35 -35z m90 0 c0 -34 -1 -35
-37 -34 l-38 2 35 6 c32 6 34 7 15 18 -20 12 -20 12 0 13 25 0 8 17 -25 23
-18 3 -15 5 13 6 36 1 37 0 37 -34z m1170 5 c0 -16 -7 -20 -30 -20 -40 0 -38
-18 3 -23 28 -3 26 -4 -10 -5 -37 -2 -43 1 -43 18 0 16 7 20 30 20 40 0 38 18
-2 23 -29 3 -27 4 10 5 36 2 42 -1 42 -18z m90 -15 c0 -19 -4 -35 -10 -35 -5
0 -10 7 -10 15 0 9 -9 15 -24 15 -14 0 -28 5 -31 10 -11 18 5 30 41 30 32 0
34 -2 34 -35z m90 0 c0 -35 0 -35 -42 -33 -37 1 -39 2 -10 5 34 4 45 22 15 24
-17 1 -17 2 0 6 28 7 20 21 -15 26 -29 3 -27 4 10 5 42 2 42 2 42 -33z m90 0
c0 -41 -19 -48 -21 -7 l-2 27 -4 -27 c-2 -16 -9 -28 -14 -28 -5 0 -10 12 -10
28 l-2 27 -4 -27 c-6 -37 -23 -36 -23 0 0 37 6 42 47 42 31 0 33 -2 33 -35z
m-1413 -12 c-3 -10 -5 -4 -5 12 0 17 2 24 5 18 2 -7 2 -21 0 -30z m30 0 c-3
-10 -5 -4 -5 12 0 17 2 24 5 18 2 -7 2 -21 0 -30z m30 0 c-3 -10 -5 -4 -5 12
0 17 2 24 5 18 2 -7 2 -21 0 -30z m1173 -188 c10 -12 9 -16 -4 -21 -8 -3 -21
-4 -28 -1 -7 3 -3 6 10 6 31 1 18 21 -14 21 -13 0 -25 -4 -25 -10 -1 -5 -2
-16 -3 -22 -1 -7 10 -18 24 -25 22 -11 23 -12 5 -13 -25 0 -45 18 -45 40 0 37
55 55 80 25z m-2702 -18 c9 -10 4 -12 -23 -9 -33 4 -35 2 -33 -23 2 -24 6 -26
35 -23 19 2 29 0 24 -5 -5 -5 -21 -7 -37 -5 -21 2 -30 9 -32 26 -6 43 41 70
66 39z m2907 -120 c-12 -10 -16 -22 -13 -40 3 -15 1 -24 -3 -21 -23 14 -2 74
25 74 5 0 2 -6 -9 -13z m50 3 c3 -6 -1 -7 -9 -4 -18 7 -21 14 -7 14 6 0 13 -4
16 -10z m-3320 -379 c-3 -6 -11 -11 -16 -11 -5 0 -4 6 3 14 14 16 24 13 13 -3z
m445 -306 c0 -8 -4 -15 -10 -15 -5 0 -7 7 -4 15 4 8 8 15 10 15 2 0 4 -7 4
-15z m137 -11 c-3 -3 -12 -4 -19 -1 -8 3 -5 6 6 6 11 1 17 -2 13 -5z m-37 -24
c0 -5 -7 -10 -16 -10 -8 0 -12 5 -9 10 3 6 10 10 16 10 5 0 9 -4 9 -10z m107
-12 c-3 -8 -6 -5 -6 6 -1 11 2 17 5 13 3 -3 4 -12 1 -19z m0 -60 c-3 -8 -6 -5
-6 6 -1 11 2 17 5 13 3 -3 4 -12 1 -19z m-27 -43 c-30 -32 -86 -48 -125 -35
-27 9 -26 9 10 5 29 -4 36 -3 25 4 -11 8 -5 11 26 11 28 0 47 6 59 20 10 11
20 20 23 20 3 0 -5 -11 -18 -25z m-2885 -114 c-3 -6 -11 -11 -16 -11 -5 0 -4
6 3 14 14 16 24 13 13 -3z m3045 -126 c0 -2 -10 -9 -22 -15 -22 -11 -22 -10
-4 4 21 17 26 19 26 11z m148 -319 c-7 -8 -15 -12 -17 -11 -5 6 10 25 20 25 5
0 4 -6 -3 -14z m35 -53 c-7 -2 -19 -2 -25 0 -7 3 -2 5 12 5 14 0 19 -2 13 -5z
m10966 -6 c-2 -1 -13 -9 -24 -17 -19 -14 -19 -14 -6 3 7 9 18 17 24 17 6 0 8
-1 6 -3z m-11069 -47 c9 -17 8 -20 -12 -19 -13 0 -17 3 -10 6 6 2 12 9 12 14
0 6 -4 7 -10 4 -5 -3 -10 -1 -10 4 0 18 19 12 30 -9z m11083 -18 c15 3 24 1
21 -3 -14 -23 -74 -2 -74 25 0 5 6 2 13 -9 10 -12 22 -16 40 -13z m-16012 -39
c12 -16 12 -17 -1 -7 -8 7 -24 14 -35 17 -19 4 -19 5 1 6 12 0 28 -7 35 -16z
m6646 11 c-3 -3 -12 -4 -19 -1 -8 3 -5 6 6 6 11 1 17 -2 13 -5z m-6708 -54
c11 -24 11 -24 -3 -6 -9 11 -16 24 -16 30 0 12 5 7 19 -24z m1198 -32 c-3 -8
-6 -5 -6 6 -1 11 2 17 5 13 3 -3 4 -12 1 -19z m15138 -921 c7 -7 4 -8 -8 -3
-10 3 -25 6 -33 6 -8 0 -14 5 -14 11 0 12 40 2 55 -14z m-55 -21 c0 -3 -4 -8
-10 -11 -5 -3 -10 -1 -10 4 0 6 5 11 10 11 6 0 10 -2 10 -4z m-11391 -83 c11
3 19 1 15 -4 -13 -21 -64 -1 -64 25 0 5 6 2 14 -9 8 -12 20 -16 35 -12z m1415
-22 c3 -4 -6 -6 -19 -3 -14 2 -25 6 -25 8 0 8 39 4 44 -5z m2 -59 c-15 -15
-15 -15 -4 10 7 15 15 23 17 17 2 -6 -4 -18 -13 -27z m-4899 -109 c-3 -10 -5
-4 -5 12 0 17 2 24 5 18 2 -7 2 -21 0 -30z m-732 -123 c-34 -22 -45 -25 -45
-10 0 6 9 10 19 10 11 0 23 5 26 10 3 6 12 10 18 10 7 0 -1 -9 -18 -20z m6759
-483 c20 -8 21 -27 2 -27 -8 0 -17 -6 -19 -12 -10 -23 -27 15 -23 47 6 42 6
43 16 19 4 -12 15 -24 24 -27z m-814 -267 c12 -7 11 -12 -9 -29 -13 -11 -20
-25 -16 -31 5 -8 1 -11 -11 -8 -13 2 -19 12 -20 33 -1 41 23 56 56 35z m-6470
-428 c-9 -3 -9 -6 -1 -12 8 -5 7 -11 -6 -21 -10 -7 -15 -9 -11 -5 4 5 2 16 -4
24 -10 11 -8 17 7 28 15 11 21 12 24 2 2 -6 -2 -14 -9 -16z m6357 -199 c-2
-21 -4 -4 -4 37 0 41 2 58 4 38 2 -21 2 -55 0 -75z m-917 87 c0 -5 -2 -10 -4
-10 -3 0 -8 5 -11 10 -3 6 -1 10 4 10 6 0 11 -4 11 -10z m461 -34 c2 -24 1
-42 -2 -40 -9 5 -16 84 -8 84 4 0 9 -20 10 -44z m2059 34 c0 -5 -2 -10 -4 -10
-3 0 -8 5 -11 10 -3 6 -1 10 4 10 6 0 11 -4 11 -10z m-2593 -30 c9 0 13 6 9
15 -3 8 -1 15 4 15 6 0 10 -11 10 -24 0 -20 -4 -23 -22 -18 -18 4 -20 2 -16
-16 4 -12 2 -22 -3 -22 -5 0 -8 19 -8 43 1 23 3 34 6 25 2 -10 11 -18 20 -18z
m412 -12 c-1 -35 -2 -38 -8 -18 -7 23 -4 60 5 60 2 0 4 -19 3 -42z m743 2 c2
-23 -1 -40 -7 -40 -5 0 -10 18 -10 40 0 22 3 40 6 40 4 0 9 -18 11 -40z m59
13 c-12 -20 -14 -14 -5 12 4 9 9 14 11 11 3 -2 0 -13 -6 -23z m171 -13 c2 -23
-1 -40 -7 -40 -5 0 -10 18 -10 40 0 22 3 40 6 40 4 0 9 -18 11 -40z m54 3 c-8
-15 -15 -25 -16 -21 0 12 23 58 27 54 3 -2 -2 -17 -11 -33z m184 12 c0 -8 -3
-16 -7 -18 -5 -3 -8 5 -8 18 0 13 3 21 8 18 4 -2 7 -10 7 -18z m43 9 c-3 -9 0
-20 8 -25 9 -6 10 -9 2 -9 -6 0 -15 5 -18 10 -7 11 0 40 9 40 3 0 3 -7 -1 -16z
m37 -17 c0 -12 -4 -28 -8 -34 -5 -7 -8 4 -7 26 0 22 3 37 8 34 4 -2 7 -14 7
-26z m817 3 c10 0 13 6 9 17 -4 10 -4 14 1 10 10 -11 14 -77 4 -77 -5 0 -8 7
-7 16 0 9 -5 19 -13 22 -10 3 -12 -1 -8 -17 3 -11 1 -21 -4 -21 -5 0 -8 19 -8
43 1 23 3 34 6 25 2 -10 11 -18 20 -18z m360 -32 c-2 -13 -4 -3 -4 22 0 25 2
35 4 23 2 -13 2 -33 0 -45z m40 0 c-2 -13 -4 -3 -4 22 0 25 2 35 4 23 2 -13 2
-33 0 -45z m-2134 31 c-4 -15 -8 -17 -14 -8 -6 11 4 28 18 29 0 0 -1 -9 -4
-21z m70 -20 c-6 -6 -9 -1 -7 13 3 33 6 36 11 14 3 -10 1 -22 -4 -27z m1144
19 c-3 -8 -6 -5 -6 6 -1 11 2 17 5 13 3 -3 4 -12 1 -19z m313 12 c0 -5 -5 -10
-11 -10 -5 0 -7 5 -4 10 3 6 8 10 11 10 2 0 4 -4 4 -10z m-2143 -47 c-3 -10
-5 -2 -5 17 0 19 2 27 5 18 2 -10 2 -26 0 -35z m49 18 c-1 -17 -5 -26 -9 -21
-5 4 -6 17 -2 29 9 29 12 26 11 -8z m229 0 c0 -16 -3 -27 -7 -24 -13 7 -7 53
6 53 1 0 1 -13 1 -29z m35 -7 c0 -13 -3 -24 -7 -24 -5 0 -8 13 -8 29 0 16 3
27 8 24 4 -2 7 -15 7 -29z m138 29 c-10 -2 -18 -11 -18 -19 0 -8 -4 -14 -10
-14 -12 0 -12 3 -4 24 3 9 16 15 28 15 16 -1 17 -2 4 -6z m129 -20 c1 -22 -1
-24 -8 -10 -6 9 -7 22 -4 27 9 14 10 13 12 -17z m80 -6 c1 -29 1 -30 -8 -9 -5
13 -7 28 -3 33 8 14 9 12 11 -24z m1139 4 c-1 -17 -5 -26 -9 -21 -5 4 -6 17
-2 29 9 29 12 26 11 -8z m114 -25 c0 -3 -5 -6 -11 -6 -5 0 -8 4 -4 9 3 6 -4
15 -15 21 -11 6 -18 15 -14 21 5 9 44 -31 44 -45z m45 25 c0 -16 -3 -27 -7
-24 -13 7 -7 53 6 53 1 0 1 -13 1 -29z m563 -12 c-3 -20 -5 -19 -9 9 -3 20 -2
29 4 23 5 -5 7 -19 5 -32z m47 12 c0 -16 -3 -27 -7 -24 -13 7 -7 53 6 53 1 0
1 -13 1 -29z m94 13 c-11 -14 -10 -18 6 -30 10 -8 15 -14 9 -14 -5 0 -18 7
-28 15 -20 15 -20 15 0 30 25 19 30 19 13 -1z m165 -34 c-5 -5 -9 4 -10 23 -1
30 -1 30 9 9 6 -14 7 -26 1 -32z m121 21 c0 -16 -3 -27 -7 -24 -13 7 -7 53 6
53 1 0 1 -13 1 -29z m33 4 c-3 -3 -9 2 -12 12 -6 14 -5 15 5 6 7 -7 10 -15 7
-18z m-868 -24 c0 -21 -13 -4 -17 22 -2 17 -1 19 7 7 5 -8 10 -21 10 -29z m73
24 c4 -8 2 -17 -3 -20 -6 -4 -10 3 -10 14 0 25 6 27 13 6z m-2037 -17 l19 -21
-27 18 c-29 18 -34 25 -20 25 5 0 17 -10 28 -22z m2124 14 c0 -5 -7 -17 -15
-28 -14 -18 -14 -17 -4 9 12 27 19 34 19 19z m-1200 -12 c0 -5 -4 -10 -10 -10
-5 0 -10 5 -10 10 0 6 5 10 10 10 6 0 10 -4 10 -10z m230 1 c0 -6 -4 -13 -10
-16 -5 -3 -10 1 -10 9 0 9 5 16 10 16 6 0 10 -4 10 -9z m1490 -6 c7 -9 8 -15
2 -15 -5 0 -12 7 -16 15 -3 8 -4 15 -2 15 2 0 9 -7 16 -15z m-2099 -22 c13
-16 12 -17 -3 -4 -17 13 -22 21 -14 21 2 0 10 -8 17 -17z m736 11 c-3 -3 -12
-4 -19 -1 -8 3 -5 6 6 6 11 1 17 -2 13 -5z m711 -19 c-3 -3 -9 2 -12 12 -6 14
-5 15 5 6 7 -7 10 -15 7 -18z m4717 7 c-3 -3 -11 0 -18 7 -9 10 -8 11 6 5 10
-3 15 -9 12 -12z m-6235 -2 c0 -5 -2 -10 -4 -10 -3 0 -8 5 -11 10 -3 6 -1 10
4 10 6 0 11 -4 11 -10z m7049 -143 c-2 -1 -13 -9 -24 -17 -19 -14 -19 -14 -6
3 7 9 18 17 24 17 6 0 8 -1 6 -3z m-7276 -14 c-7 -2 -19 -2 -25 0 -7 3 -2 5
12 5 14 0 19 -2 13 -5z"/>
<path d="M11407 9083 c-13 -12 -7 -33 8 -33 8 0 15 9 15 20 0 20 -11 26 -23
13z"/>
<path d="M11755 8670 c-4 -7 0 -19 9 -28 15 -15 18 -15 26 -2 5 8 8 20 7 25
-5 15 -34 18 -42 5z"/>
<path d="M12830 8770 c0 -5 7 -10 16 -10 8 0 12 5 9 10 -3 6 -10 10 -16 10 -5
0 -9 -4 -9 -10z"/>
<path d="M15645 8770 c-3 -5 1 -10 9 -10 9 0 16 5 16 10 0 6 -4 10 -9 10 -6 0
-13 -4 -16 -10z"/>
<path d="M11106 8688 c-15 -45 -15 -48 4 -48 21 0 24 12 10 45 -7 18 -8 18
-14 3z"/>
<path d="M15297 8543 c-12 -11 -8 -23 8 -23 8 0 15 7 15 15 0 16 -12 20 -23 8z"/>
<path d="M11560 8025 c-17 -21 1 -39 29 -30 27 8 28 45 2 45 -10 0 -24 -7 -31
-15z"/>
<path d="M15297 8073 c-12 -11 -8 -23 8 -23 8 0 15 7 15 15 0 16 -12 20 -23 8z"/>
<path d="M990 7864 c0 -18 5 -24 23 -23 12 0 16 3 9 6 -9 3 -10 9 -2 18 8 9 5
14 -10 18 -16 4 -20 0 -20 -19z"/>
<path d="M630 7865 c0 -18 5 -25 20 -25 15 0 20 7 20 25 0 18 -5 25 -20 25
-15 0 -20 -7 -20 -25z"/>
<path d="M720 7880 c0 -5 9 -10 20 -10 11 0 20 5 20 10 0 6 -9 10 -20 10 -11
0 -20 -4 -20 -10z"/>
<path d="M1200 7880 c0 -5 9 -10 20 -10 11 0 20 5 20 10 0 6 -9 10 -20 10 -11
0 -20 -4 -20 -10z"/>
<path d="M1660 7880 c0 -5 6 -10 14 -10 8 0 18 5 21 10 3 6 -3 10 -14 10 -12
0 -21 -4 -21 -10z"/>
<path d="M1660 7850 c0 -5 9 -10 21 -10 11 0 17 5 14 10 -3 6 -13 10 -21 10
-8 0 -14 -4 -14 -10z"/>
<path d="M12247 7815 c-9 -22 3 -46 22 -43 10 2 16 13 16 28 0 28 -29 40 -38
15z"/>
<path d="M1055 7750 c-3 -5 3 -10 14 -10 12 0 21 5 21 10 0 6 -6 10 -14 10 -8
0 -18 -4 -21 -10z"/>
<path d="M13010 7545 c0 -10 7 -15 18 -13 21 4 19 22 -2 26 -10 2 -16 -3 -16
-13z"/>
<path d="M12255 6400 c-3 -5 1 -10 10 -10 9 0 13 5 10 10 -3 6 -8 10 -10 10
-2 0 -7 -4 -10 -10z"/>
<path d="M9786 5519 c-3 -17 -6 -45 -6 -61 0 -27 3 -29 32 -26 31 3 33 6 41
52 9 53 1 66 -39 66 -16 0 -23 -8 -28 -31z m45 -32 c-4 -17 -12 -32 -19 -35
-13 -4 -11 12 5 72 9 31 21 -2 14 -37z"/>
<path d="M9646 5435 c-18 -48 5 -65 85 -65 25 0 29 4 29 29 0 35 -2 37 -61 45
-38 6 -48 4 -53 -9z m84 -25 c8 -5 12 -11 10 -14 -9 -8 -90 6 -90 15 0 12 61
11 80 -1z"/>
<path d="M9848 5404 c-5 -4 -8 -18 -8 -30 0 -28 3 -30 61 -38 42 -6 46 -5 59
19 9 17 10 29 4 35 -13 13 -107 24 -116 14z m73 -24 c16 0 29 -4 29 -10 0 -11
-49 -14 -74 -4 -9 3 -16 11 -16 16 0 6 7 7 16 4 9 -3 29 -6 45 -6z"/>
<path d="M9755 5338 c-23 -76 -14 -108 31 -108 23 0 34 31 34 91 0 26 -4 29
-30 29 -17 0 -32 -6 -35 -12z m41 -30 c-3 -13 -6 -31 -6 -40 0 -10 -4 -18 -10
-18 -11 0 -13 39 -4 64 9 25 27 19 20 -6z"/>
<path d="M9600 5217 c13 -15 30 -25 38 -22 7 2 11 1 8 -4 -9 -13 62 -43 84
-36 24 8 26 21 4 29 -8 3 -12 2 -9 -4 8 -13 -5 -13 -25 0 -12 8 -12 10 -1 10
28 0 3 10 -40 16 -24 3 -53 13 -64 22 -13 11 -11 7 5 -11z"/>
<path d="M9780 5190 c-13 -8 -12 -10 3 -10 9 0 17 5 17 10 0 12 -1 12 -20 0z"/>
<path d="M9827 5180 c-9 -35 5 -44 48 -30 27 9 34 15 24 21 -8 5 -24 9 -36 9
-12 0 -23 6 -25 12 -3 7 -7 1 -11 -12z"/>
<path d="M9960 5145 c0 -10 7 -15 18 -13 21 4 19 22 -2 26 -10 2 -16 -3 -16
-13z"/>
<path d="M10807 5174 c-8 -8 1 -24 14 -24 5 0 9 7 9 15 0 15 -12 20 -23 9z"/>
<path d="M10120 5140 c0 -5 5 -10 10 -10 6 0 10 5 10 10 0 6 -4 10 -10 10 -5
0 -10 -4 -10 -10z"/>
<path d="M8500 5050 c0 -5 9 -10 20 -10 11 0 20 5 20 10 0 6 -9 10 -20 10 -11
0 -20 -4 -20 -10z"/>
<path d="M9870 5015 c0 -18 5 -25 20 -25 15 0 20 7 20 25 0 18 -5 25 -20 25
-15 0 -20 -7 -20 -25z"/>
<path d="M9960 5015 c0 -18 5 -25 20 -25 15 0 20 7 20 25 0 18 -5 25 -20 25
-15 0 -20 -7 -20 -25z m30 -5 c0 -5 -2 -10 -4 -10 -3 0 -8 5 -11 10 -3 6 -1
10 4 10 6 0 11 -4 11 -10z"/>
<path d="M10050 5030 c0 -5 9 -10 19 -10 11 0 23 5 26 10 4 6 -5 10 -19 10
-14 0 -26 -4 -26 -10z"/>
<path d="M10230 5030 c0 -5 9 -10 20 -10 11 0 20 5 20 10 0 6 -9 10 -20 10
-11 0 -20 -4 -20 -10z"/>
<path d="M8860 5020 c0 -5 9 -10 20 -10 11 0 20 5 20 10 0 6 -9 10 -20 10 -11
0 -20 -4 -20 -10z"/>
<path d="M9000 4940 c0 -5 9 -10 21 -10 11 0 17 5 14 10 -3 6 -13 10 -21 10
-8 0 -14 -4 -14 -10z"/>
<path d="M9090 4956 c0 -20 5 -26 21 -26 15 0 20 5 17 22 -5 34 -38 37 -38 4z"/>
<path d="M8500 4960 c0 -5 9 -10 21 -10 11 0 17 5 14 10 -3 6 -13 10 -21 10
-8 0 -14 -4 -14 -10z"/>
<path d="M8500 4930 c0 -5 9 -10 21 -10 11 0 17 5 14 10 -3 6 -13 10 -21 10
-8 0 -14 -4 -14 -10z"/>
<path d="M9840 4950 c0 -5 9 -10 20 -10 11 0 20 5 20 10 0 6 -9 10 -20 10 -11
0 -20 -4 -20 -10z"/>
</g>
</svg>
